PathFileType	4	(X/Y/Z)	/Users/niels/Desktop/University/Third Semester/Perception and Action/Exam/Gymnastics Motion Tracking/Code for Gym Tracking/Analyzed Data/Webcam_Backflip/id7_2_trajectory_Sports2D/id7_2_trajectory_Sports2D_px_person00.trc
DataRate	CameraRate	NumFrames	NumMarkers	Units	OrigDataRate	OrigDataStartFrame	OrigNumFrames
29.75	29.75	11	22	m	29.75	0	120
Frame#	Time	Hip			RHip			RKnee			RAnkle			RBigToe			RSmallToe			RHeel			LHip			LKnee			LAnkle			LBigToe			LSmallToe			LHeel			Neck			Head			Nose			RShoulder			RElbow			RWrist			LShoulder			LElbow			LWrist		
		X1	Y1	Z1	X2	Y2	Z2	X3	Y3	Z3	X4	Y4	Z4	X5	Y5	Z5	X6	Y6	Z6	X7	Y7	Z7	X8	Y8	Z8	X9	Y9	Z9	X10	Y10	Z10	X11	Y11	Z11	X12	Y12	Z12	X13	Y13	Z13	X14	Y14	Z14	X15	Y15	Z15	X16	Y16	Z16	X17	Y17	Z17	X18	Y18	Z18	X19	Y19	Z19	X20	Y20	Z20	X21	Y21	Z21	X22	Y22	Z22
0	0.0	0.8504448441405441	-0.48071666067614416	0.0	0.8360510414030419	-0.4783140518923441	0.0	0.8863722508809354	-0.696480942524765	0.0	0.8719836440593509	-0.9194290896138808	0.0	0.9702917421838886	-0.9410037246594108	0.0	0.9535120214481511	-0.9553812365408821	0.0	0.8480171327017255	-0.948211122227817	0.0	0.8624359985579294	-0.4759203847777617	0.0	0.884015259196938	-0.6844947423781975	0.0	0.8672226579539063	-0.8906680314332096	0.0	0.9631291095107268	-0.9050584484591538	0.0	0.9511357880680331	-0.902666236565854	0.0	0.8408871903170342	-0.9146552845638696	0.0	0.9343022623642786	-0.15946639710915353	0.0	1.0110030910069665	-0.018028293468181886	0.0	1.0062095140423881	-0.11151352527058678	0.0	0.8815497911229729	-0.20020277028285327	0.0	0.7929481099391517	-0.35593059345971534	0.0	0.7306977635848463	-0.5140049218461876	0.0	0.9079698020092519	-0.20263062975292295	0.0	0.8504496638363864	-0.3656420531089967	0.0	0.9176869886597451	-0.4830971472651245	0.0
1	0.03361344537815126	0.8511193382969359	-0.484948539022512	0.0	0.839659570266752	-0.4834953442179323	0.0	0.8876632630247674	-0.6981385508611306	0.0	0.8722839884589348	-0.9194054018471299	0.0	0.9709123865469282	-0.9460301317737255	0.0	0.9531865979802011	-0.9585622580914529	0.0	0.8481715910818161	-0.94832348740151	0.0	0.8636725873736009	-0.4815069461909768	0.0	0.8880080869456641	-0.6887663067970478	0.0	0.8718790804555105	-0.8945219705914117	0.0	0.9692720472854718	-0.9132544798675403	0.0	0.9572565184483103	-0.9091256617547957	0.0	0.8475774782134142	-0.9194522419120734	0.0	0.9383988689716839	-0.16558613366635797	0.0	1.0151254409871087	-0.025486127980149976	0.0	1.0127586283682852	-0.11803255879998391	0.0	0.8859799385220294	-0.2061705823424503	0.0	0.8032180002815521	-0.36664570695747084	0.0	0.7543352742934559	-0.5280021789282934	0.0	0.914611055960255	-0.20832132316095675	0.0	0.8619493356982574	-0.3710446525616618	0.0	0.9211867176286443	-0.48886710016022894	0.0
2	0.06722689075630252	0.850480998932958	-0.4884020251562742	0.0	0.8417519005103425	-0.48780606931226733	0.0	0.8890600902755411	-0.6991962920842353	0.0	0.8725232849335082	-0.9190508406760824	0.0	0.9713607979448003	-0.9503655134568034	0.0	0.9525390458252158	-0.9611999016672643	0.0	0.848107628961953	-0.948135481079795	0.0	0.863851637807369	-0.48604278399701595	0.0	0.8917286196923462	-0.692086319418118	0.0	0.8759533599990255	-0.8974185428263329	0.0	0.9744214203709397	-0.920686579838412	0.0	0.9624143883875081	-0.9150273780551799	0.0	0.8533341210236811	-0.9230748981983891	0.0	0.9420969972407878	-0.17124665656808993	0.0	1.0189536319733021	-0.032459210850313114	0.0	1.0185591410847654	-0.12412580591054222	0.0	0.8904206914497586	-0.21209092847753647	0.0	0.8152356436261297	-0.3776306703852663	0.0	0.7803737311746101	-0.5415476332313702	0.0	0.9207340850902052	-0.21352064433687928	0.0	0.8739282441739675	-0.3761053648630444	0.0	0.9257725265820238	-0.49441659369327956	0.0
3	0.10084033613445378	0.8479724750441371	-0.4902787129552809	0.0	0.8415210907108998	-0.4903234885391235	0.0	0.8905433328499965	-0.6994106557670663	0.0	0.8726982012973405	-0.9183897266513081	0.0	0.9715657819304563	-0.953600131280131	0.0	0.9515906202490835	-0.9630763391163155	0.0	0.8478501100121917	-0.9476497851710279	0.0	0.8622216546988111	-0.4886429857416603	0.0	0.8948721346178942	-0.693936059855728	0.0	0.8791047366179312	-0.8989173100390221	0.0	0.9779712624677737	-0.9266946347810179	0.0	0.9659187154711334	-0.9198307157711246	0.0	0.8574484992122698	-0.9249561722046564	0.0	0.945044747526706	-0.17599071223657317	0.0	1.0220269058681877	-0.03842992394368302	0.0	1.0230039726545317	-0.12928361703598545	0.0	0.8948906153102759	-0.21772950436529098	0.0	0.8304807519579788	-0.3885224889529045	0.0	0.8106588820404725	-0.5532820476345323	0.0	0.9257237398740353	-0.2177405059074741	0.0	0.8862924580479696	-0.3803203085645521	0.0	0.9323075949069053	-0.4993179889426734	0.0
4	0.13445378151260504	0.844170893108037	-0.4901807036584595	0.0	0.8393233142911322	-0.4905438231248039	0.0	0.8920519872995314	-0.6991360834361928	0.0	0.8728861518124565	-0.9177638164298167	0.0	0.9715794146374888	-0.9556201585782226	0.0	0.9507134889614434	-0.9642467748268804	0.0	0.847674760404452	-0.947122979916833	0.0	0.8587695300432789	-0.4889561090514395	0.0	0.8972305266091704	-0.6944952085277865	0.0	0.8812252240536488	-0.8991557705199671	0.0	0.9797780969296722	-0.9306892626060427	0.0	0.9674841344847367	-0.9230117138710717	0.0	0.8595320942090006	-0.9252064256398849	0.0	0.9469408257188338	-0.17940637810278107	0.0	1.0237428752082125	-0.042916138442032285	0.0	1.025624208168542	-0.1330046994775709	0.0	0.8992373635844284	-0.22269934721092194	0.0	0.8494539625627333	-0.39831106223302115	0.0	0.8458576080553133	-0.5611863094240813	0.0	0.9290076033790834	-0.22059614446409875	0.0	0.8984962667226961	-0.38303493637140307	0.0	0.9415092878481439	-0.5029538127628147	0.0
5	0.1680672268907563	0.8404731388936904	-0.4884714708786584	0.0	0.8365358963233168	-0.48882358742975607	0.0	0.8935215892245668	-0.6990130345841556	0.0	0.8731963077945948	-0.9175039757400947	0.0	0.9715503849422513	-0.9564810584136364	0.0	0.9502651222558252	-0.964816802366851	0.0	0.8478685391471388	-0.9468029539969879	0.0	0.854555905913538	-0.48742048681348454	0.0	0.8987902015794296	-0.6943750055723898	0.0	0.8822990615040813	-0.8985367098485417	0.0	0.9800314922692221	-0.9322487280844672	0.0	0.9672857667041994	-0.9241864210341553	0.0	0.85955759084509	-0.9242481670267156	0.0	0.9475428864687843	-0.1811776878679362	0.0	1.023513115214449	-0.045516956278360825	0.0	1.0260428968631192	-0.13485966791058943	0.0	0.9030219212274855	-0.22653929640320258	0.0	0.8712384545430745	-0.4054796185603757	0.0	0.8852781703806393	-0.5631792405972766	0.0	0.9303688653330112	-0.2218724168757167	0.0	0.9102010960874062	-0.38365703596077405	0.0	0.954027983296515	-0.5045946182579789	0.0
6	0.20168067226890757	0.8382080178332862	-0.4860026189902863	0.0	0.8347320040963134	-0.4861295779258255	0.0	0.8948278492410391	-0.6992512633878538	0.0	0.8736565716804241	-0.9176560051507837	0.0	0.9716271573640507	-0.9563468476332907	0.0	0.9502761448050031	-0.9648382631136649	0.0	0.8484714810053735	-0.9467562910355868	0.0	0.8513616810653577	-0.48496523673301273	0.0	0.8996505363035895	-0.694021062962042	0.0	0.8823724359107675	-0.8974384797624617	0.0	0.9790942036139477	-0.9314997668572143	0.0	0.9659037467123028	-0.9234277989331253	0.0	0.8579032888014544	-0.922505774903344	0.0	0.9467592578389695	-0.1811550836203423	0.0	1.021024841174545	-0.0459940677447476	0.0	1.0240833644251985	-0.13457337039258346	0.0	0.9056955722766	-0.22883457600288748	0.0	0.893988041114972	-0.4084312592950478	0.0	0.9273004330569034	-0.5578255542048346	0.0	0.9301946118602243	-0.22155331166216105	0.0	0.9216538844860818	-0.38200474116749455	0.0	0.9702966103326318	-0.5036238169055239	0.0
7	0.23529411764705882	0.8379325970356026	-0.483496555742779	0.0	0.8347726574121193	-0.4833348775891457	0.0	0.8958240054442542	-0.699441544058572	0.0	0.8741702646631391	-0.9179825399834718	0.0	0.9718134671809124	-0.9554641037719956	0.0	0.9505094303981702	-0.9643381410791596	0.0	0.8492971957945828	-0.9468574328091951	0.0	0.8506609898405607	-0.4823823392668751	0.0	0.8998918688018728	-0.6934557067236864	0.0	0.881601895621142	-0.8960831103658827	0.0	0.9773093155920646	-0.9291460304369032	0.0	0.9640175433850926	-0.9212942000849588	0.0	0.8552349635216144	-0.920284178600376	0.0	0.9447441829137032	-0.17940379425746528	0.0	1.0163939205819468	-0.04436031401414244	0.0	1.0198987942206068	-0.13212987352000588	0.0	0.9068853784442462	-0.22933346276577174	0.0	0.9159583240156745	-0.4060593878203475	0.0	0.9700856505381358	-0.5445411050341677	0.0	0.9293303513123208	-0.21981146821428743	0.0	0.933336802605861	-0.3784107718265083	0.0	0.9900664800158545	-0.4997509710428628	0.0
8	0.2689075630252101	0.8394227033830415	-0.4812303657357687	0.0	0.8365342424382458	-0.4807723747464271	0.0	0.89640344141226	-0.6991142277537236	0.0	0.8745969980943082	-0.9181848420057769	0.0	0.9719546246530633	-0.9541482780229706	0.0	0.9506930914478882	-0.9634248558814007	0.0	0.8501327557028491	-0.9468986403742278	0.0	0.8528327416672095	-0.48000165112311427	0.0	0.8995901987572311	-0.6925405800863665	0.0	0.8802752250047801	-0.8945526539076393	0.0	0.9749514411259765	-0.9259815859948626	0.0	0.962096054878052	-0.9184372013615264	0.0	0.8522708381072838	-0.9177811273907108	0.0	0.9418721063011882	-0.17621314619577477	0.0	1.010086543338598	-0.040890395220352406	0.0	1.0139795953068953	-0.12779488344241433	0.0	0.9065194685843508	-0.22792958301112176	0.0	0.9360780728934335	-0.39790806181067595	0.0	1.011777662235287	-0.5230486676162652	0.0	0.9286049048369771	-0.21697223119496475	0.0	0.9452493926792352	-0.3735054787702464	0.0	1.0117796476686904	-0.49311848425351396	0.0
9	0.3025210084033613	0.8421346657893519	-0.47913509629931256	0.0	0.8393559918080999	-0.4783017066608196	0.0	0.8964898185848553	-0.6981839102274491	0.0	0.8748222875703148	-0.9181023870742419	0.0	0.9719015271343407	-0.9527920761484762	0.0	0.9506795700415142	-0.9623546236008612	0.0	0.8508289828670496	-0.9467538807517084	0.0	0.8573360946954777	-0.4777984363163249	0.0	0.8989512616797743	-0.6912892976583255	0.0	0.8788131869917888	-0.8929059884947248	0.0	0.9723909449881484	-0.9225614821569149	0.0	0.9604014434335976	-0.9152951887559936	0.0	0.84970671059615	-0.9151996444266888	0.0	0.9385324474781312	-0.17203044855613475	0.0	1.0026998170067276	-0.03606450463288481	0.0	1.0070103850362342	-0.12205300544347762	0.0	0.9047060523655113	-0.22453786320603786	0.0	0.9538939866392542	-0.3838710614507951	0.0	1.0505026369781285	-0.4928002163014558	0.0	0.9285061989619049	-0.21345713239776473	0.0	0.9566536910449797	-0.3679725587427422	0.0	1.0327349789699565	-0.4843500102619527	0.0
10	0.3361344537815126	0.8456144413989103	-0.47705217484518064	0.0	0.8426176443157842	-0.4756763679143001	0.0	0.8960194732489876	-0.6968845724377271	0.0	0.8747344429197608	-0.9177635846748493	0.0	0.971662594724559	-0.9517608762747123	0.0	0.9505029357937279	-0.9614241815438921	0.0	0.8512757395449634	-0.9465200616436094	0.0	0.8633162716249878	-0.47566573620852426	0.0	0.8983728962080149	-0.6898942626780318	0.0	0.8777255129894046	-0.8912711034135636	0.0	0.9702002881119582	-0.9193196711503068	0.0	0.9592048638900144	-0.912216343468835	0.0	0.8483208754812468	-0.9128801437131646	0.0	0.9349208823859405	-0.16730792615803197	0.0	0.9947475822708535	-0.030452765786654873	0.0	0.9996329418760698	-0.11547553413315605	0.0	0.9015588306309343	-0.2191912215774333	0.0	0.9694561088312518	-0.3642582161598573	0.0	1.0849467221838662	-0.4536229575609036	0.0	0.9291766109939413	-0.20971976256107874	0.0	0.966684699186004	-0.36237634734886875	0.0	1.0508264938613312	-0.4743501911519581	0.0
